<svg width="16" height="16" viewBox="0 0 16 16" fill="none" xmlns="http://www.w3.org/2000/svg">
<g clip-path="url(#clip0_36109_3110)">
<path d="M11.0791 0C11.1163 0 11.1535 0 11.1929 0C11.2842 1.12835 10.8535 1.97146 10.3301 2.582C9.81651 3.18834 9.11322 3.7764 7.97574 3.68717C7.89986 2.57498 8.33125 1.79441 8.85397 1.18526C9.33875 0.617573 10.2275 0.112414 11.0791 0Z" fill="#9CA3AF"/>
<path d="M14.5224 11.7446C14.5224 11.7558 14.5224 11.7657 14.5224 11.7762C14.2028 12.7444 13.7468 13.5741 13.1903 14.3442C12.6824 15.0432 12.0599 15.984 10.9484 15.984C9.98794 15.984 9.34999 15.3664 8.36566 15.3496C7.32443 15.3327 6.75182 15.866 5.79982 16.0001C5.69092 16.0001 5.58202 16.0001 5.47522 16.0001C4.77615 15.899 4.21197 15.3453 3.80096 14.8465C2.589 13.3725 1.65245 11.4685 1.47821 9.03189C1.47821 8.79302 1.47821 8.55484 1.47821 8.31596C1.55198 6.57214 2.3993 5.15432 3.52555 4.46719C4.11994 4.10185 4.93704 3.7906 5.84689 3.92971C6.23683 3.99013 6.63519 4.12363 6.98438 4.25571C7.3153 4.38288 7.72912 4.60841 8.12116 4.59647C8.38674 4.58874 8.65092 4.45033 8.9186 4.35267C9.70269 4.06953 10.4713 3.74493 11.4844 3.89739C12.702 4.08147 13.5662 4.62246 14.1002 5.45714C13.0702 6.11265 12.2559 7.10049 12.395 8.7874C12.5187 10.3197 13.4095 11.2162 14.5224 11.7446Z" fill="#9CA3AF"/>
</g>
<defs>
<clipPath id="clip0_36109_3110">
<rect width="16" height="16" fill="white"/>
</clipPath>
</defs>
</svg>
